<svg enable-background="new 0 0 141.7 141.7" viewBox="0 0 141.7 141.7" xmlns="http://www.w3.org/2000/svg"><path d="m84.2 24.6c-2.4 0-5.1.4-8.1 1.1-6.7 1.6-13.5 5.8-18.4 11.2-5.3 5.9-7.5 12.5-6.2 18.1.1.4.2.7.3 1.1-5.1-.1-8.7-1.8-9.3-4.3-.3-1.2-.1-2.2.7-3.1.7-.8 1.7-1.5 2.9-1.7l1.8-.4-.4-1.8c-1-4.1-3.5-4.9-5.4-4.9-.6 0-1.2.1-1.9.2-.9.2-3.1 1.2-4.8 3.2-1.5 1.7-3 4.7-1.9 9.1 1.5 6.2 8.4 9.9 18.4 9.9 1 0 2 0 3-.1 2.9 3.7 7.3 5.6 14.5 8.6l.9.3c6.5 2.6 12 4.8 13.7 11.6 3.4 13.9-9.9 22.5-19.6 24.8-2.4.6-4.7.9-6.8.9-3.6 0-13.2-1.8-15.2-10-1-4 .7-7.1 2.3-9 2.3-2.7 5.8-4.7 10-5.7l1.8-.4-.4-1.8c-1-4.2-4.5-6.3-8.9-5.3-9.6 2.3-18.3 11.4-15.7 22.1 1.1 4.5 3.7 8.7 7.5 11.7 4.5 3.7 10.5 5.6 17.4 5.6 3.5 0 7.2-.5 11.1-1.4 5.8-1.4 15.2-5.2 22.4-11.2 9.2-7.6 12.7-16.9 10.4-26.8-1.9-7.7-8.5-13.6-19.7-17.6-1.5-.5-3-1-4.4-1.4-.1 0-.1 0-.2-.1 16.2-6.1 24.2-14.5 22-23.5-.8-2.7-3.4-9-13.8-9zm-16.7 28.8c-.7-.7-1.1-1.3-1.3-2.1-.8-3.2.1-6.5 2.5-9.5 2.5-3.1 6.4-5.4 10.9-6.5 1.9-.5 3.6-.7 5-.7 3.7 0 4.5 1.6 4.8 2.9 1.2 5-7.8 11.5-21.9 15.9zm69.8-18.3c-.4.8-1.4 1.8-3.6 1.8h-.4c-1.8 0-6 .7-9.7 1.4-.5 1.2-1 2.2-1.5 3.3l-.3.7c-3.4 7.8-7.2 16.6-6.2 24.5.1.5.2 1 .4 1.5.1.4.3.9.4 1.5l.5 2.2-2.1.8c-.8.3-1.6.6-2.4.8s-1.6.3-2.4.3c-2 0-3.8-.7-5.1-2.1-2-2.1-2.8-5.6-2.4-10.3.3-3.4 1.1-6.2 1.2-6.5 1.4-5.1 3.8-9.8 6.2-13.9-2.5.5-5 .9-7.3 1.4l-.4.1-.4-.1c-.7-.2-1.7-.9-1.8-2s.5-2.1 1.9-2.8l.2-.1c.2-.1 5.9-2.6 13.1-4.8l.4-.6c2.2-3.4 4.3-6.6 6.1-9.8-1.5-.4-3.1-.7-5-.7-2.2 0-4.8.3-7.6 1-1.4.3-3 .8-4.6 1.3l-2.2.7-.9-2.1c-1.8-4-.5-8.1 3.1-10.3 1.9-1.1 4.2-2 6.8-2.6 2.4-.6 5-.8 7.4-.8 6.9 0 11.7 2.2 13.1 6.1 1.3 3.6-1.1 8.7-3.6 13.6-.3.5-.5 1-.7 1.3 0 .1-.1.2-.1.2 2.8-.4 5.2-.5 7.4-.4l.9.1.5.8c.7.1 2.2 2.5 1.1 4.5zm-6.8 10.3c3.3 7.8 5.1 16.4 5.1 25.3 0 36.1-29.4 65.5-65.5 65.5s-65.5-29.4-65.5-65.5 29.5-65.4 65.6-65.4c9.9 0 19.3 2.2 27.7 6.2-1.4 1.7-3.5 5.3-2.6 10.9-7.5-3.9-16-6.1-25.1-6.1-30.1 0-54.5 24.5-54.5 54.5s24.5 54.5 54.5 54.5c30.1 0 54.5-24.5 54.5-54.5 0-4.4-.5-8.7-1.5-12.8 2.2-6.5 5.5-10.6 7.3-12.6z" fill="#ee7f00"/></svg>